<svg width="719" height="97" viewBox="0 0 719 97" fill="none" xmlns="http://www.w3.org/2000/svg">
<rect width="719" height="97" rx="2" fill="white"/>
<rect x="0.5" y="0.5" width="718" height="96" rx="1.5" stroke="black" stroke-opacity="0.76"/>
<path d="M147.351 49.275C147.351 47.575 147.734 46.05 148.501 44.7C149.268 43.3333 150.309 42.2667 151.626 41.5C152.959 40.7333 154.434 40.35 156.051 40.35C157.951 40.35 159.609 40.8083 161.026 41.725C162.443 42.6417 163.476 43.9417 164.126 45.625H161.401C160.918 44.575 160.218 43.7667 159.301 43.2C158.401 42.6333 157.318 42.35 156.051 42.35C154.834 42.35 153.743 42.6333 152.776 43.2C151.809 43.7667 151.051 44.575 150.501 45.625C149.951 46.6583 149.676 47.875 149.676 49.275C149.676 50.6583 149.951 51.875 150.501 52.925C151.051 53.9583 151.809 54.7583 152.776 55.325C153.743 55.8917 154.834 56.175 156.051 56.175C157.318 56.175 158.401 55.9 159.301 55.35C160.218 54.7833 160.918 53.975 161.401 52.925H164.126C163.476 54.5917 162.443 55.8833 161.026 56.8C159.609 57.7 157.951 58.15 156.051 58.15C154.434 58.15 152.959 57.775 151.626 57.025C150.309 56.2583 149.268 55.2 148.501 53.85C147.734 52.5 147.351 50.975 147.351 49.275ZM174.862 58.225C173.579 58.225 172.412 57.9333 171.362 57.35C170.329 56.7667 169.512 55.9417 168.912 54.875C168.329 53.7917 168.037 52.5417 168.037 51.125C168.037 49.725 168.337 48.4917 168.937 47.425C169.554 46.3417 170.387 45.5167 171.437 44.95C172.487 44.3667 173.662 44.075 174.962 44.075C176.262 44.075 177.437 44.3667 178.487 44.95C179.537 45.5167 180.362 46.3333 180.962 47.4C181.579 48.4667 181.887 49.7083 181.887 51.125C181.887 52.5417 181.571 53.7917 180.937 54.875C180.321 55.9417 179.479 56.7667 178.412 57.35C177.346 57.9333 176.162 58.225 174.862 58.225ZM174.862 56.225C175.679 56.225 176.446 56.0333 177.162 55.65C177.879 55.2667 178.454 54.6917 178.887 53.925C179.337 53.1583 179.562 52.225 179.562 51.125C179.562 50.025 179.346 49.0917 178.912 48.325C178.479 47.5583 177.912 46.9917 177.212 46.625C176.512 46.2417 175.754 46.05 174.937 46.05C174.104 46.05 173.337 46.2417 172.637 46.625C171.954 46.9917 171.404 47.5583 170.987 48.325C170.571 49.0917 170.362 50.025 170.362 51.125C170.362 52.2417 170.562 53.1833 170.962 53.95C171.379 54.7167 171.929 55.2917 172.612 55.675C173.296 56.0417 174.046 56.225 174.862 56.225ZM202.729 44.05C203.795 44.05 204.745 44.275 205.579 44.725C206.412 45.1583 207.07 45.8167 207.554 46.7C208.037 47.5833 208.279 48.6583 208.279 49.925V58H206.029V50.25C206.029 48.8833 205.687 47.8417 205.004 47.125C204.337 46.3917 203.429 46.025 202.279 46.025C201.095 46.025 200.154 46.4083 199.454 47.175C198.754 47.925 198.404 49.0167 198.404 50.45V58H196.154V50.25C196.154 48.8833 195.812 47.8417 195.129 47.125C194.462 46.3917 193.554 46.025 192.404 46.025C191.22 46.025 190.279 46.4083 189.579 47.175C188.879 47.925 188.529 49.0167 188.529 50.45V58H186.254V44.3H188.529V46.275C188.979 45.5583 189.579 45.0083 190.329 44.625C191.095 44.2417 191.937 44.05 192.854 44.05C194.004 44.05 195.02 44.3083 195.904 44.825C196.787 45.3417 197.445 46.1 197.879 47.1C198.262 46.1333 198.895 45.3833 199.779 44.85C200.662 44.3167 201.645 44.05 202.729 44.05ZM215.66 46.825C216.11 46.0417 216.777 45.3917 217.66 44.875C218.56 44.3417 219.602 44.075 220.785 44.075C222.002 44.075 223.102 44.3667 224.085 44.95C225.085 45.5333 225.869 46.3583 226.435 47.425C227.002 48.475 227.285 49.7 227.285 51.1C227.285 52.4833 227.002 53.7167 226.435 54.8C225.869 55.8833 225.085 56.725 224.085 57.325C223.102 57.925 222.002 58.225 220.785 58.225C219.619 58.225 218.585 57.9667 217.685 57.45C216.802 56.9167 216.127 56.2583 215.66 55.475V64.5H213.385V44.3H215.66V46.825ZM224.96 51.1C224.96 50.0667 224.752 49.1667 224.335 48.4C223.919 47.6333 223.352 47.05 222.635 46.65C221.935 46.25 221.16 46.05 220.31 46.05C219.477 46.05 218.702 46.2583 217.985 46.675C217.285 47.075 216.719 47.6667 216.285 48.45C215.869 49.2167 215.66 50.1083 215.66 51.125C215.66 52.1583 215.869 53.0667 216.285 53.85C216.719 54.6167 217.285 55.2083 217.985 55.625C218.702 56.025 219.477 56.225 220.31 56.225C221.16 56.225 221.935 56.025 222.635 55.625C223.352 55.2083 223.919 54.6167 224.335 53.85C224.752 53.0667 224.96 52.15 224.96 51.1ZM233.93 39.5V58H231.655V39.5H233.93ZM238.332 51.1C238.332 49.7 238.616 48.475 239.182 47.425C239.749 46.3583 240.524 45.5333 241.507 44.95C242.507 44.3667 243.616 44.075 244.832 44.075C246.032 44.075 247.074 44.3333 247.957 44.85C248.841 45.3667 249.499 46.0167 249.932 46.8V44.3H252.232V58H249.932V55.45C249.482 56.25 248.807 56.9167 247.907 57.45C247.024 57.9667 245.991 58.225 244.807 58.225C243.591 58.225 242.491 57.925 241.507 57.325C240.524 56.725 239.749 55.8833 239.182 54.8C238.616 53.7167 238.332 52.4833 238.332 51.1ZM249.932 51.125C249.932 50.0917 249.724 49.1917 249.307 48.425C248.891 47.6583 248.324 47.075 247.607 46.675C246.907 46.2583 246.132 46.05 245.282 46.05C244.432 46.05 243.657 46.25 242.957 46.65C242.257 47.05 241.699 47.6333 241.282 48.4C240.866 49.1667 240.657 50.0667 240.657 51.1C240.657 52.15 240.866 53.0667 241.282 53.85C241.699 54.6167 242.257 55.2083 242.957 55.625C243.657 56.025 244.432 56.225 245.282 56.225C246.132 56.225 246.907 56.025 247.607 55.625C248.324 55.2083 248.891 54.6167 249.307 53.85C249.724 53.0667 249.932 52.1583 249.932 51.125ZM258.627 42.075C258.194 42.075 257.827 41.925 257.527 41.625C257.227 41.325 257.077 40.9583 257.077 40.525C257.077 40.0917 257.227 39.725 257.527 39.425C257.827 39.125 258.194 38.975 258.627 38.975C259.044 38.975 259.394 39.125 259.677 39.425C259.977 39.725 260.127 40.0917 260.127 40.525C260.127 40.9583 259.977 41.325 259.677 41.625C259.394 41.925 259.044 42.075 258.627 42.075ZM259.727 44.3V58H257.452V44.3H259.727ZM271.654 44.05C273.321 44.05 274.671 44.5583 275.704 45.575C276.738 46.575 277.254 48.025 277.254 49.925V58H275.004V50.25C275.004 48.8833 274.663 47.8417 273.979 47.125C273.296 46.3917 272.363 46.025 271.179 46.025C269.979 46.025 269.021 46.4 268.304 47.15C267.604 47.9 267.254 48.9917 267.254 50.425V58H264.979V44.3H267.254V46.25C267.704 45.55 268.313 45.0083 269.079 44.625C269.863 44.2417 270.721 44.05 271.654 44.05ZM299.56 58L295.41 50.875H292.66V58H290.385V40.575H296.01C297.327 40.575 298.435 40.8 299.335 41.25C300.252 41.7 300.935 42.3083 301.385 43.075C301.835 43.8417 302.06 44.7167 302.06 45.7C302.06 46.9 301.71 47.9583 301.01 48.875C300.327 49.7917 299.294 50.4 297.91 50.7L302.285 58H299.56ZM292.66 49.05H296.01C297.244 49.05 298.169 48.75 298.785 48.15C299.402 47.5333 299.71 46.7167 299.71 45.7C299.71 44.6667 299.402 43.8667 298.785 43.3C298.185 42.7333 297.26 42.45 296.01 42.45H292.66V49.05ZM306.12 51.1C306.12 49.7 306.404 48.475 306.97 47.425C307.537 46.3583 308.312 45.5333 309.295 44.95C310.295 44.3667 311.404 44.075 312.62 44.075C313.82 44.075 314.862 44.3333 315.745 44.85C316.629 45.3667 317.287 46.0167 317.72 46.8V44.3H320.02V58H317.72V55.45C317.27 56.25 316.595 56.9167 315.695 57.45C314.812 57.9667 313.779 58.225 312.595 58.225C311.379 58.225 310.279 57.925 309.295 57.325C308.312 56.725 307.537 55.8833 306.97 54.8C306.404 53.7167 306.12 52.4833 306.12 51.1ZM317.72 51.125C317.72 50.0917 317.512 49.1917 317.095 48.425C316.679 47.6583 316.112 47.075 315.395 46.675C314.695 46.2583 313.92 46.05 313.07 46.05C312.22 46.05 311.445 46.25 310.745 46.65C310.045 47.05 309.487 47.6333 309.07 48.4C308.654 49.1667 308.445 50.0667 308.445 51.1C308.445 52.15 308.654 53.0667 309.07 53.85C309.487 54.6167 310.045 55.2083 310.745 55.625C311.445 56.025 312.22 56.225 313.07 56.225C313.92 56.225 314.695 56.025 315.395 55.625C316.112 55.2083 316.679 54.6167 317.095 53.85C317.512 53.0667 317.72 52.1583 317.72 51.125ZM326.415 42.075C325.982 42.075 325.615 41.925 325.315 41.625C325.015 41.325 324.865 40.9583 324.865 40.525C324.865 40.0917 325.015 39.725 325.315 39.425C325.615 39.125 325.982 38.975 326.415 38.975C326.832 38.975 327.182 39.125 327.465 39.425C327.765 39.725 327.915 40.0917 327.915 40.525C327.915 40.9583 327.765 41.325 327.465 41.625C327.182 41.925 326.832 42.075 326.415 42.075ZM327.515 44.3V58H325.24V44.3H327.515ZM337.617 58.225C336.567 58.225 335.626 58.05 334.792 57.7C333.959 57.3333 333.301 56.8333 332.817 56.2C332.334 55.55 332.067 54.8083 332.017 53.975H334.367C334.434 54.6583 334.751 55.2167 335.317 55.65C335.901 56.0833 336.659 56.3 337.592 56.3C338.459 56.3 339.142 56.1083 339.642 55.725C340.142 55.3417 340.392 54.8583 340.392 54.275C340.392 53.675 340.126 53.2333 339.592 52.95C339.059 52.65 338.234 52.3583 337.117 52.075C336.101 51.8083 335.267 51.5417 334.617 51.275C333.984 50.9917 333.434 50.5833 332.967 50.05C332.517 49.5 332.292 48.7833 332.292 47.9C332.292 47.2 332.501 46.5583 332.917 45.975C333.334 45.3917 333.926 44.9333 334.692 44.6C335.459 44.25 336.334 44.075 337.317 44.075C338.834 44.075 340.059 44.4583 340.992 45.225C341.926 45.9917 342.426 47.0417 342.492 48.375H340.217C340.167 47.6583 339.876 47.0833 339.342 46.65C338.826 46.2167 338.126 46 337.242 46C336.426 46 335.776 46.175 335.292 46.525C334.809 46.875 334.567 47.3333 334.567 47.9C334.567 48.35 334.709 48.725 334.992 49.025C335.292 49.3083 335.659 49.5417 336.092 49.725C336.542 49.8917 337.159 50.0833 337.942 50.3C338.926 50.5667 339.726 50.8333 340.342 51.1C340.959 51.35 341.484 51.7333 341.917 52.25C342.367 52.7667 342.601 53.4417 342.617 54.275C342.617 55.025 342.409 55.7 341.992 56.3C341.576 56.9 340.984 57.375 340.217 57.725C339.467 58.0583 338.601 58.225 337.617 58.225ZM359.704 50.625C359.704 51.0583 359.679 51.5167 359.629 52H348.679C348.762 53.35 349.22 54.4083 350.054 55.175C350.904 55.925 351.929 56.3 353.129 56.3C354.112 56.3 354.929 56.075 355.579 55.625C356.245 55.1583 356.712 54.5417 356.979 53.775H359.429C359.062 55.0917 358.329 56.1667 357.229 57C356.129 57.8167 354.762 58.225 353.129 58.225C351.829 58.225 350.662 57.9333 349.629 57.35C348.612 56.7667 347.812 55.9417 347.229 54.875C346.645 53.7917 346.354 52.5417 346.354 51.125C346.354 49.7083 346.637 48.4667 347.204 47.4C347.77 46.3333 348.562 45.5167 349.579 44.95C350.612 44.3667 351.795 44.075 353.129 44.075C354.429 44.075 355.579 44.3583 356.579 44.925C357.579 45.4917 358.345 46.275 358.879 47.275C359.429 48.2583 359.704 49.375 359.704 50.625ZM357.354 50.15C357.354 49.2833 357.162 48.5417 356.779 47.925C356.395 47.2917 355.87 46.8167 355.204 46.5C354.554 46.1667 353.829 46 353.029 46C351.879 46 350.895 46.3667 350.079 47.1C349.279 47.8333 348.82 48.85 348.704 50.15H357.354ZM363.232 51.1C363.232 49.7 363.515 48.475 364.082 47.425C364.648 46.3583 365.423 45.5333 366.407 44.95C367.407 44.3667 368.523 44.075 369.757 44.075C370.823 44.075 371.815 44.325 372.732 44.825C373.648 45.3083 374.348 45.95 374.832 46.75V39.5H377.132V58H374.832V55.425C374.382 56.2417 373.715 56.9167 372.832 57.45C371.948 57.9667 370.915 58.225 369.732 58.225C368.515 58.225 367.407 57.925 366.407 57.325C365.423 56.725 364.648 55.8833 364.082 54.8C363.515 53.7167 363.232 52.4833 363.232 51.1ZM374.832 51.125C374.832 50.0917 374.623 49.1917 374.207 48.425C373.79 47.6583 373.223 47.075 372.507 46.675C371.807 46.2583 371.032 46.05 370.182 46.05C369.332 46.05 368.557 46.25 367.857 46.65C367.157 47.05 366.598 47.6333 366.182 48.4C365.765 49.1667 365.557 50.0667 365.557 51.1C365.557 52.15 365.765 53.0667 366.182 53.85C366.598 54.6167 367.157 55.2083 367.857 55.625C368.557 56.025 369.332 56.225 370.182 56.225C371.032 56.225 371.807 56.025 372.507 55.625C373.223 55.2083 373.79 54.6167 374.207 53.85C374.623 53.0667 374.832 52.1583 374.832 51.125ZM395.916 58.175C394.766 58.175 393.733 57.975 392.816 57.575C391.916 57.1583 391.208 56.5917 390.691 55.875C390.175 55.1417 389.908 54.3 389.891 53.35H392.316C392.4 54.1667 392.733 54.8583 393.316 55.425C393.916 55.975 394.783 56.25 395.916 56.25C397 56.25 397.85 55.9833 398.466 55.45C399.1 54.9 399.416 54.2 399.416 53.35C399.416 52.6833 399.233 52.1417 398.866 51.725C398.5 51.3083 398.041 50.9917 397.491 50.775C396.941 50.5583 396.2 50.325 395.266 50.075C394.116 49.775 393.191 49.475 392.491 49.175C391.808 48.875 391.216 48.4083 390.716 47.775C390.233 47.125 389.991 46.2583 389.991 45.175C389.991 44.225 390.233 43.3833 390.716 42.65C391.2 41.9167 391.875 41.35 392.741 40.95C393.625 40.55 394.633 40.35 395.766 40.35C397.4 40.35 398.733 40.7583 399.766 41.575C400.816 42.3917 401.408 43.475 401.541 44.825H399.041C398.958 44.1583 398.608 43.575 397.991 43.075C397.375 42.5583 396.558 42.3 395.541 42.3C394.591 42.3 393.816 42.55 393.216 43.05C392.616 43.5333 392.316 44.2167 392.316 45.1C392.316 45.7333 392.491 46.25 392.841 46.65C393.208 47.05 393.65 47.3583 394.166 47.575C394.7 47.775 395.441 48.0083 396.391 48.275C397.541 48.5917 398.466 48.9083 399.166 49.225C399.866 49.525 400.466 50 400.966 50.65C401.466 51.2833 401.716 52.15 401.716 53.25C401.716 54.1 401.491 54.9 401.041 55.65C400.591 56.4 399.925 57.0083 399.041 57.475C398.158 57.9417 397.116 58.175 395.916 58.175ZM418.589 44.3V58H416.314V55.975C415.881 56.675 415.272 57.225 414.489 57.625C413.722 58.0083 412.872 58.2 411.939 58.2C410.872 58.2 409.914 57.9833 409.064 57.55C408.214 57.1 407.539 56.4333 407.039 55.55C406.556 54.6667 406.314 53.5917 406.314 52.325V44.3H408.564V52.025C408.564 53.375 408.906 54.4167 409.589 55.15C410.272 55.8667 411.206 56.225 412.389 56.225C413.606 56.225 414.564 55.85 415.264 55.1C415.964 54.35 416.314 53.2583 416.314 51.825V44.3H418.589ZM422.955 51.125C422.955 49.7083 423.239 48.475 423.805 47.425C424.372 46.3583 425.155 45.5333 426.155 44.95C427.172 44.3667 428.33 44.075 429.63 44.075C431.314 44.075 432.697 44.4833 433.78 45.3C434.88 46.1167 435.605 47.25 435.955 48.7H433.505C433.272 47.8667 432.814 47.2083 432.13 46.725C431.464 46.2417 430.63 46 429.63 46C428.33 46 427.28 46.45 426.48 47.35C425.68 48.2333 425.28 49.4917 425.28 51.125C425.28 52.775 425.68 54.05 426.48 54.95C427.28 55.85 428.33 56.3 429.63 56.3C430.63 56.3 431.464 56.0667 432.13 55.6C432.797 55.1333 433.255 54.4667 433.505 53.6H435.955C435.589 55 434.855 56.125 433.755 56.975C432.655 57.8083 431.28 58.225 429.63 58.225C428.33 58.225 427.172 57.9333 426.155 57.35C425.155 56.7667 424.372 55.9417 423.805 54.875C423.239 53.8083 422.955 52.5583 422.955 51.125ZM439.516 51.125C439.516 49.7083 439.799 48.475 440.366 47.425C440.933 46.3583 441.716 45.5333 442.716 44.95C443.733 44.3667 444.891 44.075 446.191 44.075C447.874 44.075 449.258 44.4833 450.341 45.3C451.441 46.1167 452.166 47.25 452.516 48.7H450.066C449.833 47.8667 449.374 47.2083 448.691 46.725C448.024 46.2417 447.191 46 446.191 46C444.891 46 443.841 46.45 443.041 47.35C442.241 48.2333 441.841 49.4917 441.841 51.125C441.841 52.775 442.241 54.05 443.041 54.95C443.841 55.85 444.891 56.3 446.191 56.3C447.191 56.3 448.024 56.0667 448.691 55.6C449.358 55.1333 449.816 54.4667 450.066 53.6H452.516C452.149 55 451.416 56.125 450.316 56.975C449.216 57.8083 447.841 58.225 446.191 58.225C444.891 58.225 443.733 57.9333 442.716 57.35C441.716 56.7667 440.933 55.9417 440.366 54.875C439.799 53.8083 439.516 52.5583 439.516 51.125ZM469.426 50.625C469.426 51.0583 469.401 51.5167 469.351 52H458.401C458.485 53.35 458.943 54.4083 459.776 55.175C460.626 55.925 461.651 56.3 462.851 56.3C463.835 56.3 464.651 56.075 465.301 55.625C465.968 55.1583 466.435 54.5417 466.701 53.775H469.151C468.785 55.0917 468.051 56.1667 466.951 57C465.851 57.8167 464.485 58.225 462.851 58.225C461.551 58.225 460.385 57.9333 459.351 57.35C458.335 56.7667 457.535 55.9417 456.951 54.875C456.368 53.7917 456.076 52.5417 456.076 51.125C456.076 49.7083 456.36 48.4667 456.926 47.4C457.493 46.3333 458.285 45.5167 459.301 44.95C460.335 44.3667 461.518 44.075 462.851 44.075C464.151 44.075 465.301 44.3583 466.301 44.925C467.301 45.4917 468.068 46.275 468.601 47.275C469.151 48.2583 469.426 49.375 469.426 50.625ZM467.076 50.15C467.076 49.2833 466.885 48.5417 466.501 47.925C466.118 47.2917 465.593 46.8167 464.926 46.5C464.276 46.1667 463.551 46 462.751 46C461.601 46 460.618 46.3667 459.801 47.1C459.001 47.8333 458.543 48.85 458.426 50.15H467.076ZM478.654 58.225C477.604 58.225 476.663 58.05 475.829 57.7C474.996 57.3333 474.338 56.8333 473.854 56.2C473.371 55.55 473.104 54.8083 473.054 53.975H475.404C475.471 54.6583 475.788 55.2167 476.354 55.65C476.938 56.0833 477.696 56.3 478.629 56.3C479.496 56.3 480.179 56.1083 480.679 55.725C481.179 55.3417 481.429 54.8583 481.429 54.275C481.429 53.675 481.163 53.2333 480.629 52.95C480.096 52.65 479.271 52.3583 478.154 52.075C477.138 51.8083 476.304 51.5417 475.654 51.275C475.021 50.9917 474.471 50.5833 474.004 50.05C473.554 49.5 473.329 48.7833 473.329 47.9C473.329 47.2 473.538 46.5583 473.954 45.975C474.371 45.3917 474.963 44.9333 475.729 44.6C476.496 44.25 477.371 44.075 478.354 44.075C479.871 44.075 481.096 44.4583 482.029 45.225C482.963 45.9917 483.463 47.0417 483.529 48.375H481.254C481.204 47.6583 480.913 47.0833 480.379 46.65C479.863 46.2167 479.163 46 478.279 46C477.463 46 476.813 46.175 476.329 46.525C475.846 46.875 475.604 47.3333 475.604 47.9C475.604 48.35 475.746 48.725 476.029 49.025C476.329 49.3083 476.696 49.5417 477.129 49.725C477.579 49.8917 478.196 50.0833 478.979 50.3C479.963 50.5667 480.763 50.8333 481.379 51.1C481.996 51.35 482.521 51.7333 482.954 52.25C483.404 52.7667 483.638 53.4417 483.654 54.275C483.654 55.025 483.446 55.7 483.029 56.3C482.613 56.9 482.021 57.375 481.254 57.725C480.504 58.0583 479.638 58.225 478.654 58.225ZM493.091 58.225C492.041 58.225 491.099 58.05 490.266 57.7C489.433 57.3333 488.774 56.8333 488.291 56.2C487.808 55.55 487.541 54.8083 487.491 53.975H489.841C489.908 54.6583 490.224 55.2167 490.791 55.65C491.374 56.0833 492.133 56.3 493.066 56.3C493.933 56.3 494.616 56.1083 495.116 55.725C495.616 55.3417 495.866 54.8583 495.866 54.275C495.866 53.675 495.599 53.2333 495.066 52.95C494.533 52.65 493.708 52.3583 492.591 52.075C491.574 51.8083 490.741 51.5417 490.091 51.275C489.458 50.9917 488.908 50.5833 488.441 50.05C487.991 49.5 487.766 48.7833 487.766 47.9C487.766 47.2 487.974 46.5583 488.391 45.975C488.808 45.3917 489.399 44.9333 490.166 44.6C490.933 44.25 491.808 44.075 492.791 44.075C494.308 44.075 495.533 44.4583 496.466 45.225C497.399 45.9917 497.899 47.0417 497.966 48.375H495.691C495.641 47.6583 495.349 47.0833 494.816 46.65C494.299 46.2167 493.599 46 492.716 46C491.899 46 491.249 46.175 490.766 46.525C490.283 46.875 490.041 47.3333 490.041 47.9C490.041 48.35 490.183 48.725 490.466 49.025C490.766 49.3083 491.133 49.5417 491.566 49.725C492.016 49.8917 492.633 50.0833 493.416 50.3C494.399 50.5667 495.199 50.8333 495.816 51.1C496.433 51.35 496.958 51.7333 497.391 52.25C497.841 52.7667 498.074 53.4417 498.091 54.275C498.091 55.025 497.883 55.7 497.466 56.3C497.049 56.9 496.458 57.375 495.691 57.725C494.941 58.0583 494.074 58.225 493.091 58.225ZM508.252 46.175H505.377V58H503.102V46.175H501.327V44.3H503.102V43.325C503.102 41.7917 503.494 40.675 504.277 39.975C505.077 39.2583 506.352 38.9 508.102 38.9V40.8C507.102 40.8 506.394 41 505.977 41.4C505.577 41.7833 505.377 42.425 505.377 43.325V44.3H508.252V46.175ZM524.43 44.3V58H522.155V55.975C521.722 56.675 521.113 57.225 520.33 57.625C519.563 58.0083 518.713 58.2 517.78 58.2C516.713 58.2 515.755 57.9833 514.905 57.55C514.055 57.1 513.38 56.4333 512.88 55.55C512.397 54.6667 512.155 53.5917 512.155 52.325V44.3H514.405V52.025C514.405 53.375 514.747 54.4167 515.43 55.15C516.113 55.8667 517.047 56.225 518.23 56.225C519.447 56.225 520.405 55.85 521.105 55.1C521.805 54.35 522.155 53.2583 522.155 51.825V44.3H524.43ZM531.921 39.5V58H529.646V39.5H531.921ZM539.449 39.5V58H537.174V39.5H539.449ZM556.501 44.3L548.251 64.45H545.901L548.601 57.85L543.076 44.3H545.601L549.901 55.4L554.151 44.3H556.501ZM571.153 40.575L570.878 53.075H568.978L568.703 40.575H571.153ZM570.028 58.15C569.594 58.15 569.228 58 568.928 57.7C568.628 57.4 568.478 57.0333 568.478 56.6C568.478 56.1667 568.628 55.8 568.928 55.5C569.228 55.2 569.594 55.05 570.028 55.05C570.444 55.05 570.794 55.2 571.078 55.5C571.378 55.8 571.528 56.1667 571.528 56.6C571.528 57.0333 571.378 57.4 571.078 57.7C570.794 58 570.444 58.15 570.028 58.15Z" fill="#FF0000"/>
</svg>
