<svg width="721" height="99" viewBox="0 0 721 99" fill="none" xmlns="http://www.w3.org/2000/svg">
<rect x="1" y="1" width="719" height="97" rx="3" fill="#D9D9D9"/>
<rect x="0.5" y="0.5" width="720" height="98" rx="3.5" stroke="black" stroke-opacity="0.45"/>
<path d="M254.121 61L249.001 52.104H246.217V61H242.569V38.76H250.249C251.955 38.76 253.395 39.0587 254.569 39.656C255.763 40.2533 256.649 41.0533 257.225 42.056C257.822 43.0587 258.121 44.1787 258.121 45.416C258.121 46.8667 257.694 48.1893 256.841 49.384C256.009 50.5573 254.718 51.3573 252.969 51.784L258.473 61H254.121ZM246.217 49.192H250.249C251.614 49.192 252.638 48.8507 253.321 48.168C254.025 47.4853 254.377 46.568 254.377 45.416C254.377 44.264 254.035 43.368 253.353 42.728C252.67 42.0667 251.635 41.736 250.249 41.736H246.217V49.192ZM280.707 51.752C280.707 52.4133 280.665 53.0107 280.579 53.544H267.107C267.214 54.952 267.737 56.0827 268.675 56.936C269.614 57.7893 270.766 58.216 272.131 58.216C274.094 58.216 275.481 57.3947 276.291 55.752H280.227C279.694 57.3733 278.723 58.7067 277.315 59.752C275.929 60.776 274.201 61.288 272.131 61.288C270.446 61.288 268.931 60.9147 267.587 60.168C266.265 59.4 265.219 58.3333 264.451 56.968C263.705 55.5813 263.331 53.9813 263.331 52.168C263.331 50.3547 263.694 48.7653 264.419 47.4C265.166 46.0133 266.201 44.9467 267.523 44.2C268.867 43.4533 270.403 43.08 272.131 43.08C273.795 43.08 275.278 43.4427 276.579 44.168C277.881 44.8933 278.894 45.9173 279.619 47.24C280.345 48.5413 280.707 50.0453 280.707 51.752ZM276.899 50.6C276.878 49.256 276.398 48.1787 275.459 47.368C274.521 46.5573 273.358 46.152 271.971 46.152C270.713 46.152 269.635 46.5573 268.739 47.368C267.843 48.1573 267.31 49.2347 267.139 50.6H276.899ZM289.705 45.96C290.324 45.1493 291.167 44.4667 292.233 43.912C293.3 43.3573 294.505 43.08 295.849 43.08C297.385 43.08 298.783 43.464 300.041 44.232C301.321 44.9787 302.324 46.0347 303.049 47.4C303.775 48.7653 304.137 50.3333 304.137 52.104C304.137 53.8747 303.775 55.464 303.049 56.872C302.324 58.2587 301.321 59.3467 300.041 60.136C298.783 60.904 297.385 61.288 295.849 61.288C294.505 61.288 293.311 61.0213 292.265 60.488C291.22 59.9333 290.367 59.2507 289.705 58.44V69.384H286.057V43.368H289.705V45.96ZM300.425 52.104C300.425 50.888 300.169 49.8427 299.657 48.968C299.167 48.072 298.505 47.4 297.673 46.952C296.863 46.4827 295.988 46.248 295.049 46.248C294.132 46.248 293.257 46.4827 292.425 46.952C291.615 47.4213 290.953 48.104 290.441 49C289.951 49.896 289.705 50.952 289.705 52.168C289.705 53.384 289.951 54.4507 290.441 55.368C290.953 56.264 291.615 56.9467 292.425 57.416C293.257 57.8853 294.132 58.12 295.049 58.12C295.988 58.12 296.863 57.8853 297.673 57.416C298.505 56.9253 299.167 56.2213 299.657 55.304C300.169 54.3867 300.425 53.32 300.425 52.104ZM313.153 37.32V61H309.505V37.32H313.153ZM335.574 43.368L324.758 69.288H320.982L324.566 60.712L317.622 43.368H321.686L326.646 56.808L331.798 43.368H335.574ZM357.488 61.224C355.995 61.224 354.651 60.968 353.456 60.456C352.261 59.9227 351.323 59.176 350.64 58.216C349.957 57.256 349.616 56.136 349.616 54.856H353.52C353.605 55.816 353.979 56.6053 354.64 57.224C355.323 57.8427 356.272 58.152 357.488 58.152C358.747 58.152 359.728 57.8533 360.432 57.256C361.136 56.6373 361.488 55.848 361.488 54.888C361.488 54.1413 361.264 53.5333 360.816 53.064C360.389 52.5947 359.845 52.232 359.184 51.976C358.544 51.72 357.648 51.4427 356.496 51.144C355.045 50.76 353.861 50.376 352.944 49.992C352.048 49.5867 351.28 48.968 350.64 48.136C350 47.304 349.68 46.1947 349.68 44.808C349.68 43.528 350 42.408 350.64 41.448C351.28 40.488 352.176 39.752 353.328 39.24C354.48 38.728 355.813 38.472 357.328 38.472C359.483 38.472 361.243 39.016 362.608 40.104C363.995 41.1707 364.763 42.6427 364.912 44.52H360.88C360.816 43.7093 360.432 43.016 359.728 42.44C359.024 41.864 358.096 41.576 356.944 41.576C355.899 41.576 355.045 41.8427 354.384 42.376C353.723 42.9093 353.392 43.6773 353.392 44.68C353.392 45.3627 353.595 45.928 354 46.376C354.427 46.8027 354.96 47.144 355.6 47.4C356.24 47.656 357.115 47.9333 358.224 48.232C359.696 48.6373 360.891 49.0427 361.808 49.448C362.747 49.8533 363.536 50.4827 364.176 51.336C364.837 52.168 365.168 53.288 365.168 54.696C365.168 55.8267 364.859 56.8933 364.24 57.896C363.643 58.8987 362.757 59.7093 361.584 60.328C360.432 60.9253 359.067 61.224 357.488 61.224ZM387.393 51.752C387.393 52.4133 387.35 53.0107 387.265 53.544H373.793C373.899 54.952 374.422 56.0827 375.361 56.936C376.299 57.7893 377.451 58.216 378.817 58.216C380.779 58.216 382.166 57.3947 382.977 55.752H386.913C386.379 57.3733 385.409 58.7067 384.001 59.752C382.614 60.776 380.886 61.288 378.817 61.288C377.131 61.288 375.617 60.9147 374.273 60.168C372.95 59.4 371.905 58.3333 371.137 56.968C370.39 55.5813 370.017 53.9813 370.017 52.168C370.017 50.3547 370.379 48.7653 371.105 47.4C371.851 46.0133 372.886 44.9467 374.209 44.2C375.553 43.4533 377.089 43.08 378.817 43.08C380.481 43.08 381.963 43.4427 383.265 44.168C384.566 44.8933 385.579 45.9173 386.305 47.24C387.03 48.5413 387.393 50.0453 387.393 51.752ZM383.585 50.6C383.563 49.256 383.083 48.1787 382.145 47.368C381.206 46.5573 380.043 46.152 378.657 46.152C377.398 46.152 376.321 46.5573 375.425 47.368C374.529 48.1573 373.995 49.2347 373.825 50.6H383.585ZM401.638 43.08C403.025 43.08 404.262 43.368 405.35 43.944C406.46 44.52 407.324 45.3733 407.942 46.504C408.561 47.6347 408.871 49 408.871 50.6V61H405.254V51.144C405.254 49.5653 404.86 48.36 404.07 47.528C403.281 46.6747 402.204 46.248 400.838 46.248C399.473 46.248 398.385 46.6747 397.574 47.528C396.785 48.36 396.39 49.5653 396.39 51.144V61H392.742V43.368H396.39V45.384C396.988 44.6587 397.745 44.0933 398.662 43.688C399.601 43.2827 400.593 43.08 401.638 43.08ZM419.54 46.344V56.104C419.54 56.7653 419.689 57.2453 419.988 57.544C420.308 57.8213 420.841 57.96 421.588 57.96H423.828V61H420.948C419.305 61 418.046 60.616 417.172 59.848C416.297 59.08 415.86 57.832 415.86 56.104V46.344H413.78V43.368H415.86V38.984H419.54V43.368H423.828V46.344H419.54ZM433.526 38.76L433.11 54.28H430.07L429.654 38.76H433.526ZM431.702 61.224C431.041 61.224 430.486 61 430.038 60.552C429.59 60.104 429.366 59.5493 429.366 58.888C429.366 58.2267 429.59 57.672 430.038 57.224C430.486 56.776 431.041 56.552 431.702 56.552C432.342 56.552 432.886 56.776 433.334 57.224C433.782 57.672 434.006 58.2267 434.006 58.888C434.006 59.5493 433.782 60.104 433.334 60.552C432.886 61 432.342 61.224 431.702 61.224Z" fill="#0A0505"/>
<g clip-path="url(#clip0_131_542)">
<path d="M468.5 30C458.283 30 450 38.2827 450 48.5C450 58.7173 458.283 67 468.5 67C478.717 67 487 58.7173 487 48.5C487 38.2827 478.717 30 468.5 30ZM476.438 38.6651L480.282 42.5087L468.276 54.5161L464.455 58.3349L460.612 54.4913L456.718 50.5957L460.537 46.7769L464.431 50.6725L476.438 38.6651Z" fill="black"/>
</g>
<defs>
<clipPath id="clip0_131_542">
<rect width="37" height="37" fill="white" transform="translate(450 30)"/>
</clipPath>
</defs>
</svg>
